# xmcd
#
# Track frame offsets: 
#        150
#        4110
#        18510
#        32985
#        44168
#        60743
#        74468
#        88380
#        104610
#        117915
#        128316
#        140121
#        156165
#        169517
#        185654
#        202666
#        216624
#        234174
#
# Disc length: 3302 seconds
#
# Revision: 1
# Processed by: cddbd v1.5.2PL0 Copyright (c) Steve Scherf et al.
# Submitted via: ExactAudioCopy v1.1
#
DISCID=080ce412
DTITLE=Sidney Bechet Heritage Orchestra - Vol. 2 - Compositions Périod
DTITLE=e Française
DYEAR=2004
DGENRE=Jazz
TTITLE0=American Rythm
TTITLE1=Big Chief
TTITLE2=Si Tu Vois Ma Mère - As-Tu Le Cafard
TTITLE3=Madame Becassine
TTITLE4=Premier Bal
TTITLE5=Pattes De Mouche
TTITLE6=Passeport To Paradise
TTITLE7=Le Marchand De Poisson
TTITLE8=En Attendant Le Jour
TTITLE9=Jumping Jack
TTITLE10=Lastic
TTITLE11=Francis Blues
TTITLE12=Ce Mossieu Qui Parle
TTITLE13=Sobbin And Cryin
TTITLE14=Dans Les Rues D'Antibes
TTITLE15=Petite Fleur
TTITLE16=Promenade Aux Champs Elysées
TTITLE17=Les Oignons
EXTD=
EXTT0=
EXTT1=
EXTT2=
EXTT3=
EXTT4=
EXTT5=
EXTT6=
EXTT7=
EXTT8=
EXTT9=
EXTT10=
EXTT11=
EXTT12=
EXTT13=
EXTT14=
EXTT15=
EXTT16=
EXTT17=
PLAYORDER=
